<!-- https://www.iconfinder.com/iconsets/internet-relative -->

<svg viewBox="0 0 30 30"  xmlns="http://www.w3.org/2000/svg">

  <symbol id="icon-user" viewBox="0 0 32 32">
<path d="M27.040 27.314l-0.32-0.64c-1.11-2.192-2.813-3.946-4.899-5.089l-0.061-0.031c2.806-1.924 4.627-5.108 4.64-8.718v-0.002c0-0.006 0-0.012 0-0.019 0-5.744-4.656-10.4-10.4-10.4s-10.4 4.656-10.4 10.4c0 3.597 1.827 6.768 4.603 8.636l0.037 0.024c-2.147 1.174-3.85 2.928-4.929 5.053l-0.031 0.067-0.32 0.64c-0.107 0.21-0.17 0.458-0.17 0.72 0 0.889 0.721 1.61 1.61 1.61 0.627 0 1.17-0.358 1.436-0.881l0.004-0.009 0.32-0.64c1.488-2.873 4.439-4.803 7.84-4.803s6.352 1.93 7.817 4.754l0.023 0.049 0.32 0.64c0.267 0.534 0.809 0.893 1.436 0.893 0.264 0 0.514-0.064 0.733-0.178l-0.009 0.004c0.8-0.32 1.12-1.28 0.72-2.080zM8.8 12.834c0-3.976 3.224-7.2 7.2-7.2s7.2 3.224 7.2 7.2c0 3.976-3.224 7.2-7.2 7.2v0c-0.009 0-0.020 0-0.030 0-3.96 0-7.17-3.21-7.17-7.17 0-0.011 0-0.021 0-0.032v0.002z"></path>
</symbol>

<symbol id="icon-unsmile" viewBox="0 0 32 32">
<path d="M16 2.4c-7.511 0-13.6 6.089-13.6 13.6s6.089 13.6 13.6 13.6c7.511 0 13.6-6.089 13.6-13.6v0c0-0.003 0-0.007 0-0.011 0-7.505-6.084-13.589-13.589-13.589-0.004 0-0.008 0-0.012 0h0.001zM16 26.4c-5.744 0-10.4-4.656-10.4-10.4s4.656-10.4 10.4-10.4c5.744 0 10.4 4.656 10.4 10.4v0c0 0.006 0 0.013 0 0.021 0 5.732-4.647 10.379-10.379 10.379-0.007 0-0.015 0-0.022-0h0.001zM20.080 21.040c-0.337-0.197-0.733-0.386-1.144-0.542l-0.056-0.018c-1.040-0.4-1.68-0.48-2.88-0.48-0.016-0-0.035-0-0.054-0-1.013 0-1.984 0.176-2.886 0.499l0.060-0.019c-0.467 0.174-0.863 0.363-1.239 0.581l0.039-0.021c-0.436 0.284-0.72 0.769-0.72 1.321 0 0.014 0 0.027 0.001 0.041l-0-0.002c-0 0.010-0 0.021-0 0.033 0 0.314 0.089 0.606 0.244 0.854l-0.004-0.007c0.244 0.387 0.645 0.657 1.112 0.719l0.008 0.001h0.72c0.24-0.080 0.4-0.24 0.64-0.32s0.48-0.24 0.8-0.24c0.416-0.122 0.893-0.193 1.387-0.193 0.743 0 1.449 0.159 2.085 0.446l-0.032-0.013c0.24 0.080 0.48 0.32 0.72 0.4 0.12 0.038 0.257 0.060 0.4 0.060s0.28-0.022 0.41-0.063l-0.010 0.003c0.442-0.088 0.811-0.351 1.036-0.713l0.004-0.007c0.32-0.8 0.16-1.84-0.64-2.32zM8.8 12.8c0 1.325 1.075 2.4 2.4 2.4s2.4-1.075 2.4-2.4c0-1.325-1.075-2.4-2.4-2.4v0c-1.325 0-2.4 1.075-2.4 2.4v0zM18.4 12.8c0 1.325 1.075 2.4 2.4 2.4s2.4-1.075 2.4-2.4c0-1.325-1.075-2.4-2.4-2.4v0c-1.325 0-2.4 1.075-2.4 2.4v0 0z"></path>
</symbol>

<symbol id="icon-learned" viewBox="0 0 32 32">
<path d="M28.256 20c-0.274-0.234-0.633-0.376-1.024-0.376-0.148 0-0.291 0.020-0.427 0.058l0.011-0.003c-1.12-3.6-1.6-6.32-1.84-9.28-0.48-4.64-4.16-8.4-8.88-8.4-4.88 0-8.56 3.84-8.96 8.48-0.24 2.96-0.8 5.68-1.92 9.2-0.125-0.035-0.268-0.056-0.416-0.056-0.392 0-0.75 0.142-1.026 0.377l0.002-0.002c-0.339 0.313-0.551 0.76-0.551 1.257 0 0.368 0.116 0.709 0.315 0.988l-0.004-0.005c0.48 0.56 1.68 1.36 2.88 1.68l3.2 0.8c0.151 2.947 2.577 5.28 5.548 5.28 0.018 0 0.036-0 0.054-0l-0.003 0h1.6c0 0 0 0 0 0 2.982 0 5.421-2.327 5.599-5.264l0.001-0.016c1.36-0.24 2.4-0.48 3.2-0.8 0.793-0.269 1.482-0.621 2.107-1.058l-0.027 0.018c0.24-0.16 0.56-0.32 0.8-0.64 0.4-0.72 0.4-1.68-0.24-2.24zM10.336 10.72c0.32-3.12 2.72-5.52 5.76-5.52 2.96 0 5.44 2.32 5.68 5.44 0.32 3.36 0.88 6.4 2.16 10.48-1.52 0.4-4 0.88-7.92 0.88s-6.4-0.48-7.92-0.88c1.36-4 2-7.12 2.24-10.4zM16.816 26.8h-1.6c-1.040 0-2-0.72-2.24-1.68 0.8 0.080 1.84 0.080 3.040 0.080 1.12 0 2.16 0 3.12-0.080-0.325 0.983-1.236 1.68-2.309 1.68-0.004 0-0.008 0-0.011-0h0.001z"></path>
</symbol>f

<symbol id="icon-confirm" viewBox="0 0 32 32">
<path d="M28.429 7.024c-0.72-0.56-1.68-0.48-2.24 0.24l-11.84 14.32-8.8-6.4c-0.72-0.48-1.68-0.4-2.24 0.32-0.48 0.72-0.4 1.68 0.32 2.24l10 7.28c0 0 0.001-0 0.002-0 0.043 0 0.078 0.035 0.078 0.078 0 0.001 0 0.001-0 0.002v-0c0.080 0 0.080 0.080 0.16 0.080s0.080 0.080 0.16 0.080 0.080 0 0.16 0.080h0.96c0.080 0 0.080 0 0.16-0.080 0.080 0 0.080-0.080 0.16-0.080s0.080-0.080 0.16-0.080 0.080-0.080 0.16-0.080c0 0 0.001 0 0.002 0 0.043 0 0.078-0.035 0.078-0.078 0-0.001 0-0.001-0-0.002v0l0.080-0.080 12.8-15.52c0.4-0.72 0.32-1.76-0.32-2.32z"></path>
</symbol>

<symbol id="icon-cancel" viewBox="0 0 32 32">
<path d="M18.24 16l7.84-7.84c0.28-0.285 0.453-0.677 0.453-1.109 0-0.875-0.709-1.584-1.584-1.584-0.432 0-0.823 0.173-1.109 0.453l-7.84 7.84-7.84-7.84c-0.285-0.28-0.677-0.453-1.109-0.453-0.875 0-1.584 0.709-1.584 1.584 0 0.432 0.173 0.823 0.453 1.109l7.84 7.84-7.84 7.84c-0.28 0.285-0.453 0.677-0.453 1.109 0 0.875 0.709 1.584 1.584 1.584 0.432 0 0.823-0.173 1.109-0.453l7.84-7.84 7.84 7.84c0.285 0.28 0.677 0.453 1.109 0.453 0.875 0 1.584-0.709 1.584-1.584 0-0.432-0.173-0.823-0.453-1.109l0 0z"></path>
</symbol>

<symbol id="icon-setting" viewBox="0 0 32 32">
<path d="M16.109 10.4c-3.093 0-5.6 2.507-5.6 5.6s2.507 5.6 5.6 5.6c3.093 0 5.6-2.507 5.6-5.6v0c0-0.011 0-0.023 0-0.035 0-3.073-2.491-5.565-5.565-5.565-0.012 0-0.025 0-0.037 0h0.002zM16.109 18.4c-1.325 0-2.4-1.075-2.4-2.4s1.075-2.4 2.4-2.4c1.325 0 2.4 1.075 2.4 2.4v0c0 0.013 0 0.028 0 0.044 0 1.302-1.055 2.357-2.357 2.357-0.015 0-0.031-0-0.046-0l0.002 0z"></path>
<path d="M27.149 17.28c-0.324-0.184-0.539-0.527-0.539-0.92s0.215-0.736 0.534-0.917l0.005-0.003c1.267-0.759 2.102-2.124 2.102-3.685 0-0.794-0.216-1.538-0.593-2.175l0.011 0.020-0.56-0.96c-1.2-2-3.76-2.72-5.76-1.52-0.64 0.4-1.44-0.080-1.44-0.88v-0.24c0-0.004 0-0.008 0-0.013 0-2.423-1.964-4.387-4.387-4.387-0.005 0-0.009 0-0.014 0h-0.799c-2.421 0.022-4.378 1.979-4.4 4.398v0.162c0 0.88-0.96 1.36-1.68 0.96-0.621-0.364-1.367-0.579-2.163-0.579-1.6 0-2.997 0.868-3.746 2.159l-0.011 0.021-0.48 0.88c-1.2 2-0.48 4.64 1.52 5.84 0.324 0.184 0.539 0.527 0.539 0.92s-0.215 0.736-0.534 0.917l-0.005 0.003c-1.267 0.759-2.102 2.124-2.102 3.685 0 0.794 0.216 1.538 0.593 2.175l-0.011-0.020 0.56 0.88c0.76 1.311 2.157 2.179 3.757 2.179 0.796 0 1.543-0.215 2.184-0.59l-0.020 0.011 0.24-0.16c0.141-0.089 0.313-0.142 0.498-0.142 0.52 0 0.942 0.422 0.942 0.942v0c-0 0.009-0 0.019-0 0.029 0 2.282 1.85 4.131 4.131 4.131 0.010 0 0.020-0 0.030-0h1.358c2.249-0.010 4.070-1.831 4.080-4.079v-0.001c0-0.72 0.72-1.12 1.36-0.8l0.16 0.080c2 1.2 4.56 0.48 5.76-1.52l0.56-0.96c0.33-0.597 0.525-1.309 0.525-2.067 0-1.611-0.879-3.016-2.184-3.762l-0.021-0.011zM25.549 20.080c0.308 0.209 0.508 0.558 0.508 0.954 0 0.177-0.040 0.344-0.111 0.493l0.003-0.007-0.56 0.96c-0.24 0.48-0.88 0.64-1.36 0.4l-0.16-0.080c-2.72-1.6-6.16 0.4-6.16 3.52-0.004 0.484-0.396 0.876-0.88 0.88h-1.36c-0.011 0-0.023 0.001-0.036 0.001-0.511 0-0.925-0.414-0.925-0.925 0-0.013 0-0.025 0.001-0.038l-0 0.002c-0.002-2.296-1.863-4.157-4.16-4.157-0.766 0-1.483 0.207-2.1 0.568l0.020-0.011-0.24 0.16c-0.162 0.1-0.358 0.16-0.568 0.16-0.407 0-0.762-0.223-0.949-0.554l-0.003-0.005-0.48-0.88c-0.32-0.48-0.080-1.12 0.4-1.44 2.8-1.6 2.8-5.76 0-7.36-0.308-0.209-0.508-0.558-0.508-0.954 0-0.177 0.040-0.344 0.111-0.493l-0.003 0.007 0.48-0.96c0.185-0.34 0.539-0.566 0.946-0.566 0.213 0 0.411 0.062 0.578 0.169l-0.004-0.003c2.88 1.68 6.48-0.4 6.48-3.76v-0.16c0.017-0.656 0.544-1.183 1.198-1.2l0.002-0h0.8c0.656 0.017 1.183 0.544 1.2 1.198l0 0.002v0.24c0 3.2 3.52 5.28 6.32 3.68 0.48-0.24 1.12-0.080 1.36 0.4l0.56 0.96c0.32 0.48 0.080 1.12-0.4 1.44-2.8 1.6-2.8 5.68 0 7.36z"></path>
</symbol>

<symbol id="icon-config" viewBox="0 0 32 32">
<path d="M5.84 12c0.72 2.32 2.8 4 5.36 4s4.64-1.68 5.36-4h10.64c0.884 0 1.6-0.716 1.6-1.6s-0.716-1.6-1.6-1.6v0h-10.64c-0.72-2.32-2.8-4-5.36-4s-4.64 1.68-5.36 4h-1.84c-0.884 0-1.6 0.716-1.6 1.6s0.716 1.6 1.6 1.6v0zM11.2 8c1.325 0 2.4 1.075 2.4 2.4s-1.075 2.4-2.4 2.4c-1.325 0-2.4-1.075-2.4-2.4v0c-0-0.013-0-0.028-0-0.044 0-1.302 1.055-2.357 2.357-2.357 0.015 0 0.031 0 0.046 0l-0.002-0zM28 20h-1.84c-0.72-2.32-2.8-4-5.36-4s-4.64 1.68-5.36 4h-10.64c-0.884 0-1.6 0.716-1.6 1.6s0.716 1.6 1.6 1.6v0h10.64c0.72 2.32 2.8 4 5.36 4s4.64-1.68 5.36-4h1.84c0.884 0 1.6-0.716 1.6-1.6s-0.716-1.6-1.6-1.6v0zM20.8 24c-1.325 0-2.4-1.075-2.4-2.4s1.075-2.4 2.4-2.4c1.325 0 2.4 1.075 2.4 2.4v0c0 0.013 0 0.028 0 0.044 0 1.302-1.055 2.357-2.357 2.357-0.015 0-0.031-0-0.046-0l0.002 0z"></path>
</symbol>

<symbol id="icon-burgerOpen" viewBox="0 0 32 32">
<path d="M17.635 18.84h-12.8c-0.884 0-1.6 0.716-1.6 1.6s0.716 1.6 1.6 1.6v0h12.8c0.884 0 1.6-0.716 1.6-1.6s-0.716-1.6-1.6-1.6v0z"></path>
<path d="M28.355 20.12c-0.282-0.296-0.68-0.48-1.12-0.48s-0.838 0.184-1.119 0.479l-0.001 0.001-1.28 1.2v-14.48c0-0.884-0.716-1.6-1.6-1.6s-1.6 0.716-1.6 1.6v0 18.16c-0.014 0.072-0.022 0.156-0.022 0.241 0 0.42 0.195 0.794 0.499 1.037l0.003 0.002c0.282 0.296 0.68 0.48 1.12 0.48s0.838-0.184 1.119-0.479l0.001-0.001 3.92-3.92c0.303-0.295 0.491-0.706 0.491-1.162 0-0.415-0.156-0.793-0.412-1.080l0.001 0.002z"></path>
<path d="M17.635 6.040h-12.8c-0.884 0-1.6 0.716-1.6 1.6s0.716 1.6 1.6 1.6v0h12.8c0.884 0 1.6-0.716 1.6-1.6s-0.716-1.6-1.6-1.6v0z"></path>
<path d="M4.835 15.64h11.2c0.884 0 1.6-0.716 1.6-1.6s-0.716-1.6-1.6-1.6v0h-11.2c-0.884 0-1.6 0.716-1.6 1.6s0.716 1.6 1.6 1.6v0z"></path>
</symbol>

<symbol id="icon-burgerClose" viewBox="0 0 32 32">
<path d="M24.435 5.72c-0.282-0.296-0.68-0.48-1.12-0.48s-0.838 0.184-1.119 0.479l-0.001 0.001c-0.48 0.32-0.56 0.8-0.56 1.28v18.16c0 0.884 0.716 1.6 1.6 1.6s1.6-0.716 1.6-1.6v0-14.48l1.2 1.2c0.282 0.296 0.68 0.48 1.12 0.48s0.838-0.184 1.119-0.479l0.001-0.001c0.64-0.56 0.64-1.6 0.080-2.24z"></path>
<path d="M17.635 22.84h-12.8c-0.884 0-1.6 0.716-1.6 1.6s0.716 1.6 1.6 1.6v0h12.8c0.884 0 1.6-0.716 1.6-1.6s-0.716-1.6-1.6-1.6v0z"></path>
<path d="M17.635 10.040h-12.8c-0.884 0-1.6 0.716-1.6 1.6s0.716 1.6 1.6 1.6v0h12.8c0.884 0 1.6-0.716 1.6-1.6s-0.716-1.6-1.6-1.6v0z"></path>
<path d="M4.835 19.64h11.2c0.884 0 1.6-0.716 1.6-1.6s-0.716-1.6-1.6-1.6v0h-11.2c-0.884 0-1.6 0.716-1.6 1.6s0.716 1.6 1.6 1.6v0z"></path>
</symbol>

<symbol id="icon-blind_eye" viewBox="0 0 32 32">
<path d="M28.4 10.784c-0.288-0.371-0.734-0.607-1.235-0.607-0.384 0-0.736 0.139-1.007 0.369l0.002-0.002c-1.68 1.36-3.2 2.32-4.72 2.8-1.52 0.56-3.28 0.8-5.44 0.8s-3.92-0.24-5.44-0.8-3.040-1.44-4.72-2.8c-0.72-0.56-1.68-0.48-2.24 0.24s-0.48 1.68 0.24 2.24c0.986 0.837 2.086 1.605 3.255 2.265l0.105 0.055-1.36 2.32c-0.4 0.8-0.16 1.76 0.56 2.16 0.8 0.4 1.76 0.16 2.16-0.56l1.52-2.64c1.277 0.392 2.754 0.65 4.281 0.719l0.039 0.001v2.88c0 0.884 0.716 1.6 1.6 1.6s1.6-0.716 1.6-1.6v0-2.88c1.686-0.084 3.27-0.4 4.76-0.916l-0.12 0.036 1.6 2.8c0.279 0.469 0.784 0.778 1.36 0.778 0.871 0 1.578-0.706 1.578-1.578 0-0.295-0.081-0.571-0.222-0.807l0.004 0.007-1.44-2.48c1.151-0.654 2.147-1.369 3.059-2.176l-0.019 0.016c0.72-0.56 0.8-1.52 0.24-2.24z"></path>
</symbol>

<symbol id="icon-addImage" viewBox="0 0 32 32">
<path d="M24 7.6h-0.56l-0.48-1.12c-0.762-1.708-2.444-2.878-4.4-2.88h-5.12c-1.956 0.002-3.638 1.172-4.388 2.849l-0.012 0.031-0.48 1.12h-0.56c-3.53 0.011-6.389 2.87-6.4 6.399v8.001c0.011 3.53 2.87 6.389 6.399 6.4h16.001c3.53-0.011 6.389-2.87 6.4-6.399v-8.001c-0.011-3.53-2.87-6.389-6.399-6.4h-0.001zM27.2 22c-0.005 1.765-1.435 3.195-3.199 3.2h-16.001c-1.765-0.005-3.195-1.435-3.2-3.199v-8.001c0.005-1.765 1.435-3.195 3.199-3.2h0.001c0.56 0 1.2 0.080 1.76 0 0.399-0.082 0.749-0.25 1.045-0.484l-0.005 0.004c0.32-0.24 0.48-0.64 0.64-0.96 0.24-0.48 0.4-0.96 0.64-1.52 0.153-0.602 0.691-1.040 1.331-1.040 0.010 0 0.021 0 0.031 0l-0.002-0h5.12c0.643 0.006 1.194 0.395 1.436 0.95l0.004 0.010c0.16 0.32 0.24 0.56 0.4 0.88 0.24 0.48 0.32 0.96 0.64 1.36s0.88 0.64 1.36 0.72c0.24 0.080 0.56 0 0.8 0h0.8c1.765 0.005 3.195 1.435 3.2 3.199v0.001zM16 11.6c-3.093 0-5.6 2.507-5.6 5.6s2.507 5.6 5.6 5.6c3.093 0 5.6-2.507 5.6-5.6v0c0-0.011 0-0.023 0-0.035 0-3.073-2.491-5.565-5.565-5.565-0.012 0-0.025 0-0.037 0h0.002zM16 19.6c-1.325 0-2.4-1.075-2.4-2.4s1.075-2.4 2.4-2.4c1.325 0 2.4 1.075 2.4 2.4v0c0 0.013 0 0.028 0 0.044 0 1.302-1.055 2.357-2.357 2.357-0.015 0-0.031-0-0.046-0l0.002 0z"></path>
</symbol>

<symbol id="icon-already" viewBox="0 0 32 32">
<path d="M28.416 12.869c-0.169-0.716-0.803-1.241-1.56-1.241-0.884 0-1.601 0.717-1.601 1.601 0 0.128 0.015 0.252 0.043 0.371l-0.002-0.011c0.184 0.706 0.289 1.517 0.289 2.353 0 1.752-0.463 3.395-1.274 4.815l0.025-0.048c-2.64 4.56-8.56 6.16-13.12 3.52-4.56-2.56-6.16-8.48-3.52-13.040s8.56-6.16 13.12-3.52c0.229 0.137 0.505 0.218 0.8 0.218 0.871 0 1.578-0.706 1.578-1.578 0-0.576-0.309-1.081-0.771-1.356l-0.007-0.004c-6.16-3.6-13.92-1.52-17.52 4.64-1.095 1.85-1.742 4.077-1.742 6.455 0 7.086 5.744 12.83 12.83 12.83s12.83-5.744 12.83-12.83c0-1.128-0.146-2.222-0.419-3.264l0.020 0.089zM10.896 14.629c-0.248-0.163-0.553-0.26-0.88-0.26-0.895 0-1.62 0.725-1.62 1.62 0 0.568 0.292 1.067 0.734 1.356l0.006 0.004 6.4 4c0.241 0.151 0.533 0.24 0.847 0.24 0.012 0 0.023-0 0.035-0l-0.002 0c0.519-0.011 0.979-0.258 1.277-0.636l0.003-0.004 8.4-10.8c0.56-0.72 0.4-1.68-0.32-2.24s-1.68-0.4-2.24 0.32l-7.52 9.6z"></path>
</symbol>

<symbol id="icon-repeat" viewBox="0 0 32 32">
<path d="M25.32 6.16c-0.278-0.245-0.645-0.394-1.046-0.394-0.876 0-1.586 0.71-1.586 1.586 0 0.442 0.18 0.841 0.472 1.128l0 0c2 1.92 3.28 4.56 3.28 7.52 0 0.006 0 0.014 0 0.021 0 5.732-4.647 10.379-10.379 10.379-0.007 0-0.015 0-0.022-0h0.001c-0.884 0-1.6 0.716-1.6 1.6s0.716 1.6 1.6 1.6v0c0.003 0 0.007 0 0.011 0 7.505 0 13.589-6.084 13.589-13.589 0-0.004 0-0.008 0-0.012v0.001c-0.080-3.92-1.68-7.36-4.32-9.84zM5.56 16c0-0.006-0-0.014-0-0.021 0-5.732 4.647-10.379 10.379-10.379 0.007 0 0.015 0 0.022 0h-0.001c0.884 0 1.6-0.716 1.6-1.6s-0.716-1.6-1.6-1.6v0c-0.005 0-0.012 0-0.018 0-7.5 0-13.581 6.080-13.581 13.581 0 3.64 1.432 6.946 3.764 9.384l-0.005-0.005c0.288 0.291 0.687 0.472 1.129 0.472 0.876 0 1.586-0.71 1.586-1.586 0-0.402-0.149-0.769-0.396-1.048l0.002 0.002c-1.76-1.92-2.88-4.4-2.88-7.2zM19.16 21.12c0.169 0.716 0.803 1.241 1.56 1.241 0.884 0 1.601-0.717 1.601-1.601 0-0.128-0.015-0.252-0.043-0.371l0.002 0.011-1.92-8.88c-0.4-2-2.24-3.52-4.4-3.52-2.179 0.012-4 1.532-4.474 3.569l-0.006 0.031-1.92 8.88c-0.016 0.087-0.025 0.187-0.025 0.29 0 0.769 0.511 1.419 1.213 1.627l0.012 0.003c0.087 0.016 0.187 0.025 0.29 0.025 0.769 0 1.419-0.512 1.627-1.213l0.003-0.012 0.64-3.12h5.12l0.72 3.040zM14.12 14.8l0.56-2.48c0.129-0.643 0.689-1.12 1.36-1.12s1.231 0.478 1.359 1.112l0.001 0.009 0.56 2.48z"></path>
</symbol>

<symbol id="icon-repeat2" viewBox="0 0 32 32">
<path d="M29.2 6.4c0-0.884-0.716-1.6-1.6-1.6v0h-4.8c-1.765 0.005-3.195 1.435-3.2 3.199v4.801c0 0.884 0.716 1.6 1.6 1.6s1.6-0.716 1.6-1.6v0-3.12c1.489 1.656 2.4 3.858 2.4 6.273 0 0.016-0 0.033-0 0.049v-0.003c0 5.302-4.298 9.6-9.6 9.6s-9.6-4.298-9.6-9.6c0-5.302 4.298-9.6 9.6-9.6v0c0.884 0 1.6-0.716 1.6-1.6s-0.716-1.6-1.6-1.6v0c-7.069 0-12.8 5.731-12.8 12.8s5.731 12.8 12.8 12.8c7.069 0 12.8-5.731 12.8-12.8v0c0-0.021 0-0.045 0-0.070 0-3.014-1.056-5.782-2.819-7.953l0.018 0.023h2c0.884 0 1.6-0.716 1.6-1.6v0z"></path>
</symbol>

<symbol id="icon-hardWord" viewBox="0 0 32 32">
<path d="M16 2.4c-7.511 0-13.6 6.089-13.6 13.6s6.089 13.6 13.6 13.6c7.511 0 13.6-6.089 13.6-13.6v0c0-0.003 0-0.007 0-0.011 0-7.505-6.084-13.589-13.589-13.589-0.004 0-0.008 0-0.012 0h0.001zM16 26.4c-5.744 0-10.4-4.656-10.4-10.4s4.656-10.4 10.4-10.4c5.744 0 10.4 4.656 10.4 10.4v0c0 0.006 0 0.013 0 0.021 0 5.732-4.647 10.379-10.379 10.379-0.007 0-0.015 0-0.022-0h0.001z"></path>
<path d="M16 20c-0.884 0-1.6 0.716-1.6 1.6v0 1.2c0 0.884 0.716 1.6 1.6 1.6s1.6-0.716 1.6-1.6v0-1.2c0-0.884-0.716-1.6-1.6-1.6v0z"></path>
<path d="M16 8c-0.884 0-1.6 0.716-1.6 1.6v0 7.2c0 0.884 0.716 1.6 1.6 1.6s1.6-0.716 1.6-1.6v0-7.2c0-0.884-0.716-1.6-1.6-1.6v0z"></path>
</symbol>

<symbol id="icon-quit" viewBox="0 0 32 32">
<path d="M25.010 6.981c-0.285-0.28-0.677-0.453-1.109-0.453-0.875 0-1.584 0.709-1.584 1.584 0 0.432 0.173 0.823 0.453 1.109l-0-0c1.74 1.74 2.816 4.144 2.816 6.799 0 5.311-4.305 9.616-9.616 9.616s-9.616-4.305-9.616-9.616c0-2.655 1.076-5.059 2.816-6.799v0c0.28-0.285 0.453-0.677 0.453-1.109 0-0.875-0.709-1.584-1.584-1.584-0.432 0-0.823 0.173-1.109 0.453l0-0c-4.96 4.96-4.96 13.12 0 18.080s13.12 4.96 18.080 0c2.334-2.304 3.78-5.503 3.78-9.040s-1.446-6.736-3.779-9.039l-0.001-0.001zM15.97 17.621c0.884 0 1.6-0.716 1.6-1.6v0-11.2c0-0.884-0.716-1.6-1.6-1.6s-1.6 0.716-1.6 1.6v0 11.2c0 0.884 0.716 1.6 1.6 1.6v0z"></path>
</symbol>

<symbol id="icon-folder" viewBox="0 0 32 32">
<path d="M24.8 9.2h-8.16l-1.12-3.44c-0.465-1.258-1.647-2.143-3.038-2.16l-0.002-0h-6.88c-1.765 0.005-3.195 1.435-3.2 3.199v16.801c0.008 2.648 2.152 4.792 4.799 4.8h17.601c2.648-0.008 4.792-2.152 4.8-4.799v-9.601c-0.008-2.648-2.152-4.792-4.799-4.8h-0.001zM5.6 6.8h6.88l0.8 2.4h-7.68zM26.4 23.6c0 0.884-0.716 1.6-1.6 1.6v0h-17.6c-0.884 0-1.6-0.716-1.6-1.6v0-11.2h19.2c0.884 0 1.6 0.716 1.6 1.6v0 9.6z"></path>
</symbol>

</svg>